<?xml version="1.0" encoding="UTF-8"?>
<!--Generator: Apple Native CoreSVG 341-->
<!DOCTYPE svg
PUBLIC "-//W3C//DTD SVG 1.1//EN"
       "http://www.w3.org/Graphics/SVG/1.1/DTD/svg11.dtd">
<svg version="1.1" xmlns="http://www.w3.org/2000/svg" xmlns:xlink="http://www.w3.org/1999/xlink" viewBox="0 0 13 11.96">
 <g id="s" transform="matrix(0.13 0 0 0.13 -0.0156 0)">
  <path d="M51.119 0C58.2387 0 64.9189 2.8791 69.8551 7.90787C72.9485 11.0605 75.0402 14.0405 76.1566 16.7705C76.2016 16.7799 76.2475 16.7891 76.2933 16.7984L77.4496 17.0396C77.6404 17.0806 77.8303 17.122 78.0191 17.1638L79.1402 17.4196C79.3251 17.463 79.509 17.5069 79.6918 17.5511L80.7768 17.8214C81.1344 17.913 81.4878 18.0063 81.8371 18.1012L82.8723 18.3907C83.0427 18.4397 83.2121 18.4892 83.3804 18.539L84.3771 18.8428C84.541 18.8942 84.7039 18.946 84.8656 18.9982L85.8229 19.3162C86.1375 19.4237 86.4477 19.5329 86.7533 19.6436L87.6563 19.9803C95.5116 22.9965 100.12 27.1061 100.12 32.1865C100.12 38.0323 93.616 42.759 83.2714 45.8707L82.1064 46.2098C79.3516 46.9853 76.3454 47.651 73.134 48.1983L71.7453 48.4256C71.2783 48.4989 70.8072 48.5698 70.3322 48.6382L68.8957 48.836L67.855 48.966L74.7275 82.4043C74.9566 82.8544 75.0884 83.3246 75.115 83.8138L75.12 83.9992C75.12 84.0953 75.116 84.1908 75.108 84.2856L75.088 84.1648C75.1787 84.6061 75.0716 85.0428 74.828 85.3795C74.0543 87.1609 71.7789 88.6375 68.4732 89.7408L68.4732 89.7408L67.7709 89.9649C67.6514 90.0013 67.5307 90.0373 67.4088 90.0729L67.4088 90.0729L66.6636 90.2805L65.8911 90.4771C65.4982 90.5726 65.0953 90.6639 64.683 90.7509L64.683 90.7509L63.8462 90.919C63.5632 90.9732 63.2762 91.0254 62.9853 91.0756L62.9853 91.0756L62.1013 91.2205L61.1951 91.3535L60.2676 91.4745C60.1113 91.4936 59.9542 91.5123 59.7962 91.5304L59.7962 91.5304L58.8386 91.6331C58.6774 91.6492 58.5155 91.6648 58.3527 91.6798L58.3527 91.6798L57.3672 91.7639C57.2014 91.7769 57.035 91.7894 56.8678 91.8013L56.8678 91.8013L55.8564 91.8665C55.5165 91.8861 55.174 91.9036 54.829 91.919L54.829 91.919L53.7864 91.9585C53.6114 91.964 53.4359 91.969 53.2597 91.9734L53.2597 91.9734L52.1962 91.9933L51.12 92L50.0438 91.9933C49.8654 91.9911 49.6876 91.9883 49.5104 91.985L49.5104 91.985L48.4536 91.9585C48.2786 91.953 48.1043 91.947 47.9305 91.9404L47.9305 91.9404L46.8954 91.8943C46.5529 91.8769 46.213 91.8572 45.8758 91.8355L45.8758 91.8355L44.8728 91.7639C44.7071 91.751 44.5421 91.7375 44.3778 91.7234L44.3778 91.7234L43.4014 91.6331C43.2402 91.617 43.0798 91.6004 42.9202 91.5833L42.9202 91.5833L41.9724 91.4745L41.0449 91.3535L40.1387 91.2205C39.9895 91.1973 39.8412 91.1737 39.6939 91.1495L39.6939 91.1495L38.8213 90.9988C38.6778 90.9727 38.5353 90.9461 38.3938 90.919L38.3938 90.919L37.557 90.7509L36.7451 90.5712C36.612 90.5403 36.4799 90.509 36.3489 90.4771L36.3489 90.4771L35.5764 90.2805L34.8312 90.0729C31.3665 89.0626 28.8553 87.6827 27.7486 85.9991C27.6121 86.0048 27.472 85.9936 27.3316 85.9627C26.5516 85.7908 26.0419 85.0695 26.1298 84.3067L26.158 84.1427L34.146 49.171L33.5424 49.1047C33.2956 49.0767 33.0496 49.0481 32.8046 49.0189L31.3453 48.836L29.9088 48.6382C29.4338 48.5698 28.9627 48.4989 28.4957 48.4256L27.107 48.1983L25.7433 47.9565C24.8428 47.7905 23.9595 47.615 23.0946 47.43L21.8112 47.1457C20.5418 46.8543 19.315 46.5421 18.1343 46.2097L16.9692 45.8707C6.62428 42.759 0.12 38.0323 0.12 32.1865C0.12 27.3286 4.34912 23.3487 11.6007 20.3701L12.4508 20.0309C13.0263 19.8077 13.6195 19.5905 14.2297 19.3793L15.1578 19.067L16.111 18.7637C16.272 18.714 16.434 18.6645 16.597 18.6155L17.5872 18.3259C17.7543 18.2784 17.9224 18.2313 18.0914 18.1846L19.1177 17.9088C19.4638 17.8183 19.8138 17.7295 20.1676 17.6422L21.2406 17.3848L22.3362 17.1368L23.4542 16.8981L24.594 16.6689L25.7554 16.449L26.2575 16.3601C27.2728 14.0545 28.9723 11.5758 31.3734 8.96921L31.3734 8.96921L32.0382 8.26287L32.3834 7.90743C37.3192 2.8791 43.9994 0 51.119 0ZM51.12 79.0917C45.1976 79.0917 39.6603 79.7633 35.6079 80.9255C32.0334 81.9506 30.1133 83.2527 30.1133 83.9992C30.1133 84.745 32.0337 86.0471 35.608 87.0723C39.6607 88.2348 45.1981 88.9067 51.12 88.9067C57.0419 88.9067 62.5793 88.2348 66.632 87.0723C69.7968 86.1646 71.6649 85.0398 72.0515 84.2762L71.8877 83.4781C71.3821 82.8654 70.0822 82.0887 68.062 81.3793L68.062 81.3793L67.3726 81.1491C67.1343 81.0733 66.8874 80.9987 66.6321 80.9255C62.5797 79.7633 57.0424 79.0917 51.12 79.0917ZM64.862 49.297L64.4533 49.3391L62.931 49.4762L61.3892 49.5978L59.8287 49.7036L58.2505 49.7935L56.6553 49.8674L55.0439 49.9252C53.6945 49.9666 52.3292 49.9909 50.9499 49.9979L50.1207 50C48.459 50 46.8167 49.9748 45.1974 49.9252L43.586 49.8674L41.9907 49.7935L40.4125 49.7036L38.852 49.5977L37.3102 49.4762L37.256 49.471L30.3396 79.747C31.1317 79.2905 32.0553 78.8714 33.0935 78.492L33.4261 78.3733L34.1136 78.1438C34.3478 78.0691 34.5868 77.9962 34.8305 77.9251L34.8305 77.9251L35.5756 77.7175C35.7021 77.6838 35.8298 77.6505 35.9585 77.6178L35.9585 77.6178L36.7444 77.4268C37.0107 77.3651 37.2813 77.3052 37.5562 77.2472L37.5562 77.2472L38.393 77.0791C38.676 77.0249 38.963 76.9727 39.2539 76.9225L39.2539 76.9225L40.1379 76.7777L41.0442 76.6447L41.9717 76.5237C42.128 76.5046 42.2851 76.4859 42.4431 76.4678L42.4431 76.4678L43.4007 76.3651C43.5619 76.349 43.7239 76.3335 43.8866 76.3184L43.8866 76.3184L44.8722 76.2343L45.8753 76.1628C46.0439 76.1519 46.2131 76.1416 46.3831 76.1318L46.3831 76.1318L47.4106 76.0793L48.4533 76.0398L49.5102 76.0133L50.5803 76L51.6597 76L52.7298 76.0133L53.7867 76.0398L54.8294 76.0793L54.8294 76.0793L55.3451 76.1039L56.3647 76.1628L57.3678 76.2343C57.5335 76.2473 57.6986 76.2608 57.8628 76.2748L57.8628 76.2748L58.8393 76.3651C59.0005 76.3812 59.1609 76.3978 59.3205 76.4149L59.3205 76.4149L60.2683 76.5237L61.1958 76.6447L62.1021 76.7777L62.9861 76.9225L63.847 77.0791C63.9885 77.1061 64.129 77.1337 64.2685 77.1617L64.2685 77.1617L65.0929 77.3356C65.2282 77.3655 65.3625 77.396 65.4956 77.4268L65.4956 77.4268L66.2815 77.6178C66.4102 77.6505 66.5379 77.6838 66.6644 77.7175L66.6644 77.7175L67.4095 77.9251C68.7709 78.3221 69.985 78.7761 71.0246 79.2832L64.862 49.297ZM25.2689 22.8358L24.956 22.8984C24.58 22.9762 24.2086 23.0555 23.842 23.1364L22.7565 23.3833C22.5779 23.4252 22.4006 23.4674 22.2246 23.5099L21.1828 23.7692C21.0117 23.8131 20.8418 23.8573 20.6732 23.9018L19.6765 24.1723C19.3493 24.2637 19.0273 24.3562 18.7105 24.4498L17.7757 24.7337C17.6226 24.7815 17.4708 24.8296 17.3203 24.8779L16.4334 25.1705C16.1432 25.2689 15.8584 25.3682 15.5791 25.4682L14.758 25.7707C14.624 25.8214 14.4913 25.8724 14.3601 25.9235L13.5897 26.232C13.213 26.3872 12.8493 26.5437 12.4989 26.7011L11.8158 27.0174C11.594 27.1232 11.3782 27.2293 11.1685 27.3358L10.5576 27.656C7.69369 29.2068 6.12404 30.8005 6.12404 32.1865C6.12404 33.6316 8.08548 35.5242 11.8328 37.3423L12.5563 37.6821C12.8044 37.7951 13.0594 37.9076 13.3214 38.0195L14.1278 38.3536C14.4035 38.4644 14.686 38.5744 14.9754 38.6837L15.8637 39.009C16.4695 39.224 17.1023 39.4354 17.7619 39.642C26.2144 42.2901 37.7657 43.8208 50.1207 43.8208C62.4757 43.8208 74.0266 42.2901 82.4788 39.642C83.7978 39.2288 85.01 38.7966 86.1126 38.3537L86.919 38.0196C87.4429 37.7956 87.9392 37.5695 88.4076 37.3423L89.0892 37.0007C92.3922 35.2894 94.116 33.5413 94.116 32.1865C94.116 30.7889 92.5007 29.1658 89.5493 27.5881L88.9197 27.2624C88.8116 27.2082 88.702 27.1542 88.5908 27.1002L87.905 26.7774C87.7877 26.7238 87.6688 26.6703 87.5483 26.617L86.8076 26.2984C86.4283 26.1398 86.0354 25.9826 85.6294 25.827L84.7999 25.5179C84.6588 25.4668 84.5162 25.4159 84.3722 25.3651L83.4911 25.0634C83.3414 25.0135 83.1903 24.9639 83.0378 24.9146L82.1063 24.6213L81.1419 24.3345C80.9785 24.2872 80.8137 24.2403 80.6475 24.1936L79.6348 23.9173C79.2919 23.8264 78.9438 23.7368 78.5905 23.6486L77.5153 23.3882L76.8814 23.2439C76.2641 25.7524 74.4522 27.8637 71.4827 29.4694C66.7504 32.0281 59.6767 32.973 51.4318 33L51.4318 33L50.3499 32.9978C42.4368 32.9421 35.6021 32.012 30.9418 29.5686C27.702 27.8699 25.7937 25.5806 25.2689 22.8358ZM51.119 6.15657C45.6179 6.15657 40.4688 8.37579 36.655 12.261C36.4052 12.5157 36.1646 12.7663 35.9329 13.0131L35.9329 13.0131L35.2651 13.7414C33.3832 15.8448 32.1928 17.6388 31.6069 19.0972C31.6084 19.6589 31.4585 20.1954 31.1929 20.6587C31.1808 20.7578 31.1743 20.8545 31.1718 20.9488C31.14 22.1494 31.8704 23.1318 33.7057 24.0941C36.811 25.7223 41.8713 26.5606 47.7628 26.7828L47.7628 26.7828L49.0852 26.8221C49.7528 26.8367 50.4297 26.8439 51.1142 26.8439L51.1142 26.8439L52.0978 26.8388C59.1012 26.7654 65.1763 25.9097 68.6511 24.0309C69.999 23.3021 70.7215 22.5674 70.9683 21.7278C70.1218 21.0534 69.6553 19.9345 69.845 18.7731C69.8917 18.4873 69.9751 18.2174 70.0894 17.9675C69.2198 16.3741 67.7441 14.4635 65.5835 12.2615C61.7693 8.37579 56.6202 6.15657 51.119 6.15657Z" id="1"/>
 </g>
</svg>
