<?xml version="1.0" encoding="UTF-8"?>
<!--Generator: Apple Native CoreSVG 341-->
<!DOCTYPE svg
PUBLIC "-//W3C//DTD SVG 1.1//EN"
       "http://www.w3.org/Graphics/SVG/1.1/DTD/svg11.dtd">
<svg version="1.1" xmlns="http://www.w3.org/2000/svg" xmlns:xlink="http://www.w3.org/1999/xlink" viewBox="0 0 16.016 13.728">
 <defs>
  <style>.monochrome-0{fill:#000000;}</style>
 </defs>
 <g id="s" transform="matrix(0.13 0 0 0.13 -1.612 11.427)">
  <path class="monochrome-0" d="M126.1-16.7L110.6-16.7C104.5-16.7 101.1-13.5 101.1-7.1L101.1 8.1C101.1 14.5 104.6 17.7 110.6 17.7L126.1 17.7C132.1 17.7 135.6 14.5 135.6 8.1L135.6-7.1C135.6-13.5 132.1-16.7 126.1-16.7ZM37.3-16.7L21.9-16.7C15.8-16.7 12.4-13.5 12.4-7.1L12.4 8.1C12.4 14.5 15.9 17.7 21.9 17.7L37.3 17.7C43.4 17.7 46.8 14.5 46.8 8.1L46.8-7.1C46.8-13.5 43.4-16.7 37.3-16.7ZM74.1-87.8C64-87.8 55.7-79.5 55.7-69.4C55.7-59.3 64-51.1 74.1-51.1C84.2-51.1 92.5-59.4 92.5-69.5C92.5-79.6 84.1-87.9 74.1-87.8ZM119.5-27.1C117.5-38.6 111.2-48.8 101.6-55.9C100.4-56.8 98.6-56.6 97.7-55.3C96.8-54.1 97-52.3 98.3-51.4C106.7-45.2 112.2-36.3 114-26.2C114.2-24.8 115.4-23.9 116.7-23.9C116.9-23.9 117-23.9 117.2-23.9C118.8-24.1 119.8-25.6 119.5-27.1ZM46.4-55.9C36.8-48.9 30.5-38.6 28.5-27.1C28.2-25.6 29.3-24.1 30.8-23.9C31-23.9 31.1-23.9 31.3-23.9C32.6-23.9 33.8-24.9 34-26.2C35.8-36.3 41.4-45.3 49.7-51.5C50.9-52.4 51.2-54.2 50.3-55.4C49.4-56.5 47.7-56.8 46.4-55.9Z" fill="#000000" opacity="1.0"/>
 </g>
</svg>
