<?xml version="1.0" encoding="UTF-8"?>
<!--Generator: Apple Native CoreSVG 341-->
<!DOCTYPE svg
PUBLIC "-//W3C//DTD SVG 1.1//EN"
       "http://www.w3.org/Graphics/SVG/1.1/DTD/svg11.dtd">
<svg version="1.1" xmlns="http://www.w3.org/2000/svg" xmlns:xlink="http://www.w3.org/1999/xlink" viewBox="0 0 14.703 11.986">
 <defs>
  <style>.hierarchical-0:secondary{-sfsymbols-motion-group:2;}.hierarchical-1:primary{opacity:0.0;-sfsymbols-motion-group:1;-sfsymbols-clear-behind:true;}.hierarchical-2:primary{-sfsymbols-motion-group:0;}.monochrome-0{-sfsymbols-motion-group:2;}.monochrome-1{opacity:0.0;-sfsymbols-motion-group:1;-sfsymbols-clear-behind:true;}.monochrome-2{-sfsymbols-motion-group:0;}.multicolor-0:tintColor{-sfsymbols-motion-group:2;}.multicolor-1:tintColor{-sfsymbols-motion-group:1;}.multicolor-2:tintColor{-sfsymbols-motion-group:0;}</style>
 </defs>
 <g id="s" transform="matrix(0.13 0 0 0.13 0.1495 10.8745)">
  <path class="monochrome-0 multicolor-0:tintColor hierarchical-0:secondary" d="M22.2-3.4L86.8-14.8C94.5-16.1 98-21 96.5-28.7L88.8-72.4C87.5-80 82.7-83.4 74.9-82.1L10.3-70.7C2.6-69.4-0.9-64.5 0.6-56.8L8.3-13.1C9.6-5.4 14.4-2.1 22.2-3.4ZM21.9-6C15.8-4.9 12.1-7.6 11-13.7L3.4-57.1C2.3-63.2 4.8-66.9 11.1-68L75.4-79.3C81.3-80.4 85.2-77.7 86.3-71.6L93.9-28.2C95-22.1 92.2-18.2 86.2-17.3L21.9-6ZM34.2 8.3L99.7 8.3C107.6 8.3 111.7 4.1 111.7-3.7L111.7-48C111.7-55.7 107.6-60 99.7-60L34.2-60C26.4-60 22.2-55.8 22.2-48L22.2-3.7C22.2 4.2 26.4 8.3 34.2 8.3Z" fill="none" opacity="1.0" stroke="black" stroke-width="0.065"/>
  <path class="monochrome-0 monochrome-1 multicolor-0:tintColor multicolor-1:tintColor hierarchical-0:secondary hierarchical-1:primary" d="M34.3 5.6C28.1 5.6 24.8 2.4 24.8-3.9L24.8-47.9C24.8-54.1 28-57.4 34.3-57.4L99.6-57.4C105.6-57.4 109.1-54.2 109.1-47.9L109.1-3.9C109.1 2.3 105.6 5.6 99.6 5.6L34.3 5.6Z" fill="none" opacity="1.0" stroke="black" stroke-width="0.065"/>
  <path class="monochrome-2 multicolor-2:tintColor hierarchical-2:primary" d="M55.5-7L67.1-15.4L78.7-7C79.7-6.3 80.9-7 80.5-8.3L76.1-22L87.7-30.4C88.4-30.9 88.3-32.6 87-32.6L72.7-32.6L68.3-46.3C67.9-47.4 66.5-47.4 66.1-46.3L61.7-32.6L47.3-32.6C46.1-32.6 45.6-31.2 46.6-30.4L58.2-22.1L53.8-8.4C53.3-7.1 54.5-6.4 55.5-7.1L55.5-7.1Z" fill="none" opacity="1.0" stroke="black" stroke-width="0.065"/>
 </g>
</svg>
