<?xml version="1.0" encoding="UTF-8"?>
<!--Generator: Apple Native CoreSVG 341-->
<!DOCTYPE svg
PUBLIC "-//W3C//DTD SVG 1.1//EN"
       "http://www.w3.org/Graphics/SVG/1.1/DTD/svg11.dtd">
<svg version="1.1" xmlns="http://www.w3.org/2000/svg" xmlns:xlink="http://www.w3.org/1999/xlink" viewBox="0 0 72.14 18">
 <defs>
  <style>.cls-1{fill-rule:evenodd;}</style>
 </defs>
 <g id="Icon">
  <path class="cls-1" d="M8 2.88a3.48 3.48 0 0 1 0.31 0.47 5.87 5.87 0 0 0-0.43 0.83l-0.27-0.53A7.91 7.91 0 0 1 8 2.88ZM6.67 7l0.22 0.67c-0.13 0.67-0.22 1.29-0.28 1.8h0a0.18 0.18 0 0 1-0.18 0.16h0a0.19 0.19 0 0 1-0.16-0.2C6.36 8.75 6.49 7.9 6.67 7ZM4.91 2.88a3.48 3.48 0 0 1 0.31 0.47A17.39 17.39 0 0 0 3.48 9.49h0a0.18 0.18 0 0 1-0.18 0.16h0a0.19 0.19 0 0 1-0.15-0.2C3.41 7.61 3.86 4.69 4.91 2.88ZM16.48 7.22h0a0.18 0.18 0 0 1 0.15 0.2h0c-0.11 0.7-0.24 1.55-0.41 2.44-0.08-0.23-0.15-0.45-0.22-0.68 0.13-0.67 0.22-1.29 0.28-1.79v0A0.17 0.17 0 0 1 16.48 7.22Zm3.12 0h0a0.18 0.18 0 0 1 0.16 0.2h0C19.49 9.27 19.05 12.18 18 14c-0.1-0.14-0.2-0.3-0.3-0.47a17.7 17.7 0 0 0 1.73-6.14v0A0.18 0.18 0 0 1 19.6 7.22ZM15 12.7a5.12 5.12 0 0 0 0.27 0.52c-0.13 0.28-0.26 0.54-0.4 0.78-0.1-0.14-0.2-0.3-0.3-0.47A9.23 9.23 0 0 0 15 12.7ZM7.45 1.21A2.43 2.43 0 0 1 9 1.75a3.21 3.21 0 0 1 0.48 0.42c2.36 2.47 3.36 9 5 11.6 0.14 0.22 0.23 0.33 0.26 0.38a1.6 1.6 0 0 0 1.21 0.77 1.37 1.37 0 0 0 0.48-0.1 5.34 5.34 0 0 0 0.5 0.46 2.68 2.68 0 0 1-1.39 0.39 2.52 2.52 0 0 1-1.53-0.54 4.38 4.38 0 0 1-0.47-0.43c-2.36-2.46-3.37-9-5-11.6-0.48-0.79-1.1-1.39-1.95-1a4.34 4.34 0 0 0-0.49-0.47A2.65 2.65 0 0 1 7.45 1.21Zm-3.54 0C9.1 0.53 9.51 14.92 12.75 14.92a1.37 1.37 0 0 0 0.47-0.1 5.34 5.34 0 0 0 0.5 0.46 2.66 2.66 0 0 1-1.39 0.39C9.5 15.67 8.09 10.6 7 7.19c-0.07-0.23-0.14-0.45-0.22-0.67a16.92 16.92 0 0 0-1.4-3.41 3.48 3.48 0 0 0-0.31-0.47A1.35 1.35 0 0 0 3 2.3C1.36 3.49 0.6 7.47 0.36 9.49h0a0.19 0.19 0 0 1-0.18 0.16h0A0.19 0.19 0 0 1 0 9.46C0.36 7.18 0.94 3.27 2.64 1.81A2.47 2.47 0 0 1 3.91 1.24Zm6.66 0c2.84 0 4.25 5.07 5.34 8.47 0.08 0.23 0.15 0.45 0.22 0.67a17.92 17.92 0 0 0 1.4 3.42 4.13 4.13 0 0 0 0.32 0.46 1.49 1.49 0 0 0 1.15 0.69 1.56 1.56 0 0 0 0.91-0.35c1.64-1.19 2.4-5.16 2.64-7.18v0a0.17 0.17 0 0 1 0.18-0.15h0a0.17 0.17 0 0 1 0.15 0.2c-0.35 2.28-0.94 6.19-2.63 7.64a2.58 2.58 0 0 1-1.69 0.61C13.84 15.67 13.29 2 10.16 2a1.28 1.28 0 0 0-0.48 0.11 4.3 4.3 0 0 0-0.49-0.47A2.61 2.61 0 0 1 10.57 1.21Z" fill-rule="evenodd"/>
 </g>
 <g id="Text">
  <path d="M29.88 6.79V4.26H27V6.79h-0.88V1.08H27V3.49h2.93V1.08h0.88V6.79Z"/>
  <path d="M31.45 5.58c0-0.77 0.58-1.22 1.6-1.29l1.16-0.07V3.85c0-0.47-0.29-0.74-0.88-0.74s-0.8 0.18-0.89 0.49h-0.83c0.09-0.72 0.79-1.19 1.76-1.19s1.69 0.54 1.69 1.44V6.79h-0.82V6.18h-0.06a1.46 1.46 0 0 1-1.3 0.68A1.29 1.29 0 0 1 31.45 5.58Zm2.76-0.38V4.83l-1.05 0.07c-0.59 0-0.86 0.25-0.86 0.64s0.34 0.63 0.8 0.63A1 1 0 0 0 34.21 5.2Z"/>
  <path d="M39.5 6.79h-0.82V6.11h-0.07a1.3 1.3 0 0 1-1.3 0.76 1.4 1.4 0 0 1-1.48-1.59V2.49h0.85V5.07c0 0.71 0.28 1 0.91 1A1 1 0 0 0 38.65 5V2.49h0.85Z"/>
  <path d="M41.48 1.41V2.5h0.93v0.68h-0.93V5.45c0 0.46 0.19 0.66 0.61 0.66a1.67 1.67 0 0 0 0.32 0v0.68a3.15 3.15 0 0 1-0.46 0c-1 0-1.32-0.33-1.32-1.15V3.18H40V2.5h0.68V1.41Z"/>
  <path d="M46.6 5.63a1.74 1.74 0 0 1-1.86 1.24 2 2 0 0 1-2-2.22 2 2 0 0 1 2-2.24c1.2 0 1.92 0.82 1.92 2.16v0.29h-3v0a1.16 1.16 0 0 0 1.15 1.27 1 1 0 0 0 1-0.54Zm-3-1.38h2.18A1.06 1.06 0 0 0 44.73 3.1 1.12 1.12 0 0 0 43.61 4.25Z"/>
  <path d="M52 3.21h0.07V2.49h0.82V8.22H52V6.14H52a1.44 1.44 0 0 1-1.33 0.72c-1.09 0-1.77-0.86-1.77-2.22s0.69-2.22 1.78-2.22A1.5 1.5 0 0 1 52 3.21Zm0 1.43c0-0.92-0.45-1.49-1.16-1.49s-1.14 0.56-1.14 1.49 0.42 1.49 1.13 1.49S52.05 5.56 52.05 4.64Z"/>
  <path d="M57.35 6.79h-0.82V6.11h-0.07a1.3 1.3 0 0 1-1.3 0.76 1.4 1.4 0 0 1-1.48-1.59V2.49h0.85V5.07c0 0.71 0.28 1 0.9 1A1 1 0 0 0 56.5 5V2.49h0.85Z"/>
  <path d="M57.93 5.58c0-0.77 0.58-1.22 1.6-1.29l1.17-0.07V3.85c0-0.47-0.3-0.74-0.88-0.74s-0.8 0.18-0.9 0.49H58.1c0.09-0.72 0.78-1.19 1.76-1.19s1.69 0.54 1.69 1.44V6.79h-0.82V6.18h-0.07a1.46 1.46 0 0 1-1.29 0.68A1.3 1.3 0 0 1 57.93 5.58ZM60.7 5.2V4.83l-1.05 0.07c-0.59 0-0.86 0.25-0.86 0.64s0.33 0.63 0.8 0.63A1 1 0 0 0 60.7 5.2Z"/>
  <path d="M62.39 0.81h0.85v6h-0.85Z"/>
  <path d="M64 1.19a0.54 0.54 0 1 1 0.54 0.54A0.54 0.54 0 0 1 64 1.19Zm0.12 1.3H65v4.3h-0.84Z"/>
  <path d="M67 1.41V2.5h0.93v0.68H67V5.45c0 0.46 0.19 0.66 0.61 0.66a1.67 1.67 0 0 0 0.32 0v0.68a3.15 3.15 0 0 1-0.46 0c-0.94 0-1.32-0.33-1.32-1.15V3.18h-0.68V2.5h0.68V1.41Z"/>
  <path d="M72.09 5.63a1.74 1.74 0 0 1-1.86 1.24 2 2 0 0 1-2-2.22 2 2 0 0 1 2-2.24c1.2 0 1.92 0.82 1.92 2.16v0.29h-3v0a1.16 1.16 0 0 0 1.15 1.27 1 1 0 0 0 1-0.54Zm-3-1.38h2.18A1.06 1.06 0 0 0 70.22 3.1 1.12 1.12 0 0 0 69.1 4.25Zm0.79-2.35L70.58 0.54h0.92L70.57 1.9Z"/>
  <path d="M27.54 11.53c1 0 1.6 0.45 1.68 1.2h-0.81c-0.08-0.32-0.39-0.53-0.87-0.53s-0.83 0.23-0.83 0.58 0.21 0.43 0.68 0.54l0.72 0.16c0.81 0.19 1.2 0.55 1.2 1.17 0 0.8-0.76 1.34-1.78 1.34s-1.7-0.46-1.77-1.21h0.85a0.86 0.86 0 0 0 0.93 0.55c0.53 0 0.91-0.25 0.91-0.6s-0.2-0.44-0.63-0.55L27.07 14c-0.82-0.19-1.2-0.56-1.2-1.19S26.57 11.53 27.54 11.53Z"/>
  <path d="M29.68 14.7c0-0.77 0.58-1.22 1.6-1.28l1.17-0.07V13c0-0.47-0.3-0.73-0.88-0.73s-0.8 0.17-0.9 0.49h-0.82c0.09-0.73 0.78-1.2 1.76-1.2s1.69 0.54 1.69 1.44v2.94h-0.82V15.3h-0.07a1.46 1.46 0 0 1-1.29 0.68A1.3 1.3 0 0 1 29.68 14.7Zm2.77-0.38V14L31.4 14c-0.59 0-0.86 0.25-0.86 0.64s0.33 0.63 0.8 0.63A1 1 0 0 0 32.45 14.32Z"/>
  <path d="M34.1 11.62h0.82v0.67H35a1.29 1.29 0 0 1 1.28-0.76 1.4 1.4 0 0 1 1.49 1.6v2.78h-0.85V13.33c0-0.71-0.3-1.06-0.93-1.06a1 1 0 0 0-1 1.12v2.52H34.1Z"/>
  <path d="M40.13 11.53c1 0 1.6 0.45 1.68 1.2H41c-0.07-0.32-0.38-0.53-0.86-0.53s-0.84 0.23-0.84 0.58 0.22 0.43 0.68 0.54l0.72 0.16c0.82 0.19 1.2 0.55 1.2 1.17 0 0.8-0.75 1.34-1.78 1.34s-1.69-0.46-1.77-1.21h0.85a0.88 0.88 0 0 0 0.94 0.55c0.53 0 0.9-0.25 0.9-0.6s-0.2-0.44-0.63-0.55L39.65 14c-0.82-0.19-1.2-0.56-1.2-1.19S39.15 11.53 40.13 11.53Z"/>
  <path d="M48.34 13.76c0 1.36-0.69 2.22-1.78 2.22a1.4 1.4 0 0 1-1.32-0.72h-0.07v2.08h-0.85V11.62h0.82v0.71h0.06a1.51 1.51 0 0 1 1.36-0.79C47.65 11.54 48.34 12.4 48.34 13.76Zm-0.87 0c0-0.93-0.43-1.49-1.15-1.49s-1.16 0.57-1.16 1.49 0.44 1.49 1.15 1.49S47.47 14.69 47.47 13.76Z"/>
  <path d="M52.6 14.76A1.73 1.73 0 0 1 50.74 16a2 2 0 0 1-2-2.22 2 2 0 0 1 2-2.24c1.2 0 1.92 0.82 1.92 2.16V14h-3v0a1.16 1.16 0 0 0 1.15 1.26 1 1 0 0 0 1-0.53Zm-3-1.39h2.18a1.06 1.06 0 0 0-1.06-1.15A1.12 1.12 0 0 0 49.61 13.37Z"/>
  <path d="M53.27 11.62h0.82v0.65h0.06a1.15 1.15 0 0 1 1.16-0.73 2.09 2.09 0 0 1 0.38 0v0.8a2.59 2.59 0 0 0-0.47 0 1 1 0 0 0-1.1 1v2.57h-0.85Z"/>
  <path d="M57.48 10.53v1.1h0.93v0.68h-0.93v2.26c0 0.46 0.18 0.67 0.61 0.67l0.32 0v0.67a3.28 3.28 0 0 1-0.46 0c-1 0-1.32-0.33-1.32-1.15V12.31h-0.69v-0.68h0.69v-1.1Z"/>
  <path d="M62.6 14.76A1.75 1.75 0 0 1 60.73 16a2 2 0 0 1-2-2.22 2 2 0 0 1 2-2.24c1.2 0 1.92 0.82 1.92 2.16V14h-3v0a1.16 1.16 0 0 0 1.15 1.26 1 1 0 0 0 1-0.53Zm-3-1.39h2.17a1.06 1.06 0 0 0-1.06-1.15A1.12 1.12 0 0 0 59.61 13.37Z"/>
 </g>
</svg>
